<?xml version="1.0" standalone="no"?><!DOCTYPE svg PUBLIC "-//W3C//DTD SVG 1.1//EN" "http://www.w3.org/Graphics/SVG/1.1/DTD/svg11.dtd"><svg xmlns:xlink="http://www.w3.org/1999/xlink" version="1.1" class="highcharts-root" style="font-family:&quot;Lucida Grande&quot;, &quot;Lucida Sans Unicode&quot;, Arial, Helvetica, sans-serif;font-size:12px;" xmlns="http://www.w3.org/2000/svg" width="600" height="400" viewBox="0 0 600 400" aria-hidden="false" aria-label="Interactive chart"><desc aria-hidden="true">Created with Highcharts 8.2.0</desc><defs aria-hidden="true"><clipPath id="highcharts-stsdngg-821-"><rect x="0" y="0" width="550" height="214" fill="none"></rect></clipPath></defs><rect fill="#ffffff" class="highcharts-background" x="0" y="0" width="600" height="400" rx="0" ry="0" aria-hidden="true"></rect><rect fill="none" class="highcharts-plot-background" x="40" y="62" width="550" height="214" aria-hidden="true"></rect><g class="highcharts-grid highcharts-xaxis-grid" data-z-index="1" aria-hidden="true"><path fill="none" data-z-index="1" class="highcharts-grid-line" d="M 108.5 62 L 108.5 276" opacity="1"></path><path fill="none" data-z-index="1" class="highcharts-grid-line" d="M 177.5 62 L 177.5 276" opacity="1"></path><path fill="none" data-z-index="1" class="highcharts-grid-line" d="M 245.5 62 L 245.5 276" opacity="1"></path><path fill="none" data-z-index="1" class="highcharts-grid-line" d="M 314.5 62 L 314.5 276" opacity="1"></path><path fill="none" data-z-index="1" class="highcharts-grid-line" d="M 383.5 62 L 383.5 276" opacity="1"></path><path fill="none" data-z-index="1" class="highcharts-grid-line" d="M 452.5 62 L 452.5 276" opacity="1"></path><path fill="none" data-z-index="1" class="highcharts-grid-line" d="M 520.5 62 L 520.5 276" opacity="1"></path><path fill="none" data-z-index="1" class="highcharts-grid-line" d="M 589.5 62 L 589.5 276" opacity="1"></path><path fill="none" data-z-index="1" class="highcharts-grid-line" d="M 39.5 62 L 39.5 276" opacity="1"></path></g><g class="highcharts-grid highcharts-yaxis-grid" data-z-index="1" aria-hidden="true"><path fill="none" stroke="#e6e6e6" stroke-width="1" data-z-index="1" class="highcharts-grid-line" d="M 40 276.5 L 590 276.5" opacity="1"></path><path fill="none" stroke="#e6e6e6" stroke-width="1" data-z-index="1" class="highcharts-grid-line" d="M 40 223.5 L 590 223.5" opacity="1"></path><path fill="none" stroke="#e6e6e6" stroke-width="1" data-z-index="1" class="highcharts-grid-line" d="M 40 169.5 L 590 169.5" opacity="1"></path><path fill="none" stroke="#e6e6e6" stroke-width="1" data-z-index="1" class="highcharts-grid-line" d="M 40 116.5 L 590 116.5" opacity="1"></path><path fill="none" stroke="#e6e6e6" stroke-width="1" data-z-index="1" class="highcharts-grid-line" d="M 40 61.5 L 590 61.5" opacity="1"></path></g><rect fill="none" class="highcharts-plot-border" data-z-index="1" x="40" y="62" width="550" height="214" aria-hidden="true"></rect><g class="highcharts-axis highcharts-xaxis" data-z-index="2" aria-hidden="true"><path fill="none" class="highcharts-axis-line" stroke="#ccd6eb" stroke-width="1" data-z-index="7" d="M 40 276.5 L 590 276.5"></path></g><g class="highcharts-axis highcharts-yaxis" data-z-index="2" aria-hidden="true"><path fill="none" class="highcharts-axis-line" data-z-index="7" d="M 40 62 L 40 276"></path></g><g class="highcharts-series-group" data-z-index="3" aria-hidden="false"><g class="highcharts-series highcharts-series-0 highcharts-line-series highcharts-color-0" data-z-index="0.1" opacity="1" transform="translate(40,62) scale(1 1)" clip-path="url(#highcharts-stsdngg-821-)" aria-hidden="true"><path fill="none" d="M 34.375 128.4 L 103.125 147.66000000000003 L 171.875 134.82000000000002 L 240.625 130.54 L 309.375 129.47000000000003 L 378.125 124.12000000000002 L 446.875 147.66000000000003 L 515.625 148.73" class="highcharts-graph" data-z-index="1" stroke="#7cb5ec" stroke-width="2" stroke-linejoin="round" stroke-linecap="round"></path></g><g class="highcharts-markers highcharts-series-0 highcharts-line-series highcharts-color-0" data-z-index="0.1" opacity="1" transform="translate(40,62) scale(1 1)" clip-path="none" aria-hidden="false" role="region" tabindex="-1" style="outline: currentcolor none 0px;" aria-label="حسب الجنس, line 1 of 3 with 8 data points."><path fill="#7cb5ec" d="M 34 132 A 4 4 0 1 1 34.00399999933334 131.99999800000018 Z" opacity="1" class="highcharts-point highcharts-color-0" tabindex="-1" style="outline: currentcolor none 0px;" role="img" aria-label="1. الثلث-الثاني 2020, 18. حسب الجنس."></path><path fill="#7cb5ec" d="M 103 152 A 4 4 0 1 1 103.00399999933333 151.99999800000018 Z" opacity="1" class="highcharts-point highcharts-color-0" tabindex="-1" style="outline: currentcolor none 0px;" role="img" aria-label="2. الثلث-الثالث 2020, 16.2. حسب الجنس."></path><path fill="#7cb5ec" d="M 171 139 A 4 4 0 1 1 171.00399999933333 138.99999800000018 Z" opacity="1" class="highcharts-point highcharts-color-0" tabindex="-1" style="outline: currentcolor none 0px;" role="img" aria-label="3. الثلث-الرابع 2020, 17.4. حسب الجنس."></path><path fill="#7cb5ec" d="M 240 135 A 4 4 0 1 1 240.00399999933333 134.99999800000018 Z" opacity="1" class="highcharts-point highcharts-color-0" tabindex="-1" style="outline: currentcolor none 0px;" role="img" aria-label="4. الثلث-الأول 2021, 17.8. حسب الجنس."></path><path fill="#7cb5ec" d="M 309 133 A 4 4 0 1 1 309.00399999933336 132.99999800000018 Z" opacity="1" class="highcharts-point highcharts-color-0" tabindex="-1" style="outline: currentcolor none 0px;" role="img" aria-label="5. الثلث-الثاني 2021, 17.9. حسب الجنس."></path><path fill="#7cb5ec" d="M 378 128 A 4 4 0 1 1 378.00399999933336 127.99999800000016 Z" opacity="1" class="highcharts-point highcharts-color-0" tabindex="-1" style="outline: currentcolor none 0px;" role="img" aria-label="6. الثلث-الثالث 2021, 18.4. حسب الجنس."></path><path fill="#7cb5ec" d="M 446 152 A 4 4 0 1 1 446.00399999933336 151.99999800000018 Z" opacity="1" class="highcharts-point highcharts-color-0" tabindex="-1" style="outline: currentcolor none 0px;" role="img" aria-label="7. الثلث-الرابع 2021, 16.2. حسب الجنس."></path><path fill="#7cb5ec" d="M 515 153 A 4 4 0 1 1 515.0039999993334 152.99999800000018 Z" opacity="1" class="highcharts-point highcharts-color-0" tabindex="-1" style="outline: currentcolor none 0px;" role="img" aria-label="8. الثلث-الأول 2022, 16.1. حسب الجنس."></path></g><g class="highcharts-series highcharts-series-1 highcharts-line-series highcharts-color-1" data-z-index="0.1" opacity="1" transform="translate(40,62) scale(1 1)" clip-path="url(#highcharts-stsdngg-821-)" aria-hidden="true"><path fill="none" d="M 34.375 158.36 L 103.125 176.55 L 171.875 166.92000000000002 L 240.625 160.5 L 309.375 156.22 L 378.125 150.87 L 446.875 172.26999999999998 L 515.625 170.13" class="highcharts-graph" data-z-index="1" stroke="#434348" stroke-width="2" stroke-linejoin="round" stroke-linecap="round"></path></g><g class="highcharts-markers highcharts-series-1 highcharts-line-series highcharts-color-1" data-z-index="0.1" opacity="1" transform="translate(40,62) scale(1 1)" clip-path="none" aria-hidden="false" role="region" tabindex="-1" style="outline: currentcolor none 0px;" aria-label="ذكر, line 2 of 3 with 8 data points."><path fill="#434348" d="M 34 154 L 38 158 L 34 162 L 30 158 Z" opacity="1" class="highcharts-point highcharts-color-1" tabindex="-1" style="outline: currentcolor none 0px;" role="img" aria-label="1. الثلث-الثاني 2020, 15.2. ذكر."></path><path fill="#434348" d="M 103 173 L 107 177 L 103 181 L 99 177 Z" opacity="1" class="highcharts-point highcharts-color-1" tabindex="-1" style="outline: currentcolor none 0px;" role="img" aria-label="2. الثلث-الثالث 2020, 13.5. ذكر."></path><path fill="#434348" d="M 171 163 L 175 167 L 171 171 L 167 167 Z" opacity="1" class="highcharts-point highcharts-color-1" tabindex="-1" style="outline: currentcolor none 0px;" role="img" aria-label="3. الثلث-الرابع 2020, 14.4. ذكر."></path><path fill="#434348" d="M 240 157 L 244 161 L 240 165 L 236 161 Z" opacity="1" class="highcharts-point highcharts-color-1" tabindex="-1" style="outline: currentcolor none 0px;" role="img" aria-label="4. الثلث-الأول 2021, 15. ذكر."></path><path fill="#434348" d="M 309 152 L 313 156 L 309 160 L 305 156 Z" opacity="1" class="highcharts-point highcharts-color-1" tabindex="-1" style="outline: currentcolor none 0px;" role="img" aria-label="5. الثلث-الثاني 2021, 15.4. ذكر."></path><path fill="#434348" d="M 378 147 L 382 151 L 378 155 L 374 151 Z" opacity="1" class="highcharts-point highcharts-color-1" tabindex="-1" style="outline: currentcolor none 0px;" role="img" aria-label="6. الثلث-الثالث 2021, 15.9. ذكر."></path><path fill="#434348" d="M 446 168 L 450 172 L 446 176 L 442 172 Z" opacity="1" class="highcharts-point highcharts-color-1" tabindex="-1" style="outline: currentcolor none 0px;" role="img" aria-label="7. الثلث-الرابع 2021, 13.9. ذكر."></path><path fill="#434348" d="M 515 166 L 519 170 L 515 174 L 511 170 Z" opacity="1" class="highcharts-point highcharts-color-1" tabindex="-1" style="outline: currentcolor none 0px;" role="img" aria-label="8. الثلث-الأول 2022, 14.1. ذكر."></path></g><g class="highcharts-series highcharts-series-2 highcharts-line-series highcharts-color-2" data-z-index="0.1" opacity="1" transform="translate(40,62) scale(1 1)" clip-path="url(#highcharts-stsdngg-821-)" aria-hidden="true"><path fill="none" d="M 34.375 53.5 L 103.125 77.03999999999999 L 171.875 54.57000000000002 L 240.625 66.34 L 309.375 68.47999999999999 L 378.125 63.129999999999995 L 446.875 93.09 L 515.625 97.37000000000002" class="highcharts-graph" data-z-index="1" stroke="#90ed7d" stroke-width="2" stroke-linejoin="round" stroke-linecap="round"></path></g><g class="highcharts-markers highcharts-series-2 highcharts-line-series highcharts-color-2" data-z-index="0.1" opacity="1" transform="translate(40,62) scale(1 1)" clip-path="none" aria-hidden="false" role="region" tabindex="-1" style="outline: currentcolor none 0px;" aria-label="أنثى, line 3 of 3 with 8 data points."><path fill="#90ed7d" d="M 30 50 L 38 50 L 38 58 L 30 58 Z" opacity="1" class="highcharts-point highcharts-color-2" tabindex="-1" style="outline: currentcolor none 0px;" role="img" aria-label="1. الثلث-الثاني 2020, 25. أنثى."></path><path fill="#90ed7d" d="M 99 73 L 107 73 L 107 81 L 99 81 Z" opacity="1" class="highcharts-point highcharts-color-2" tabindex="-1" style="outline: currentcolor none 0px;" role="img" aria-label="2. الثلث-الثالث 2020, 22.8. أنثى."></path><path fill="#90ed7d" d="M 167 51 L 175 51 L 175 59 L 167 59 Z" opacity="1" class="highcharts-point highcharts-color-2" tabindex="-1" style="outline: currentcolor none 0px;" role="img" aria-label="3. الثلث-الرابع 2020, 24.9. أنثى."></path><path fill="#90ed7d" d="M 236 62 L 244 62 L 244 70 L 236 70 Z" opacity="1" class="highcharts-point highcharts-color-2" tabindex="-1" style="outline: currentcolor none 0px;" role="img" aria-label="4. الثلث-الأول 2021, 23.8. أنثى."></path><path fill="#90ed7d" d="M 305 64 L 313 64 L 313 72 L 305 72 Z" opacity="1" class="highcharts-point highcharts-color-2" tabindex="-1" style="outline: currentcolor none 0px;" role="img" aria-label="5. الثلث-الثاني 2021, 23.6. أنثى."></path><path fill="#90ed7d" d="M 374 59 L 382 59 L 382 67 L 374 67 Z" opacity="1" class="highcharts-point highcharts-color-2" tabindex="-1" style="outline: currentcolor none 0px;" role="img" aria-label="6. الثلث-الثالث 2021, 24.1. أنثى."></path><path fill="#90ed7d" d="M 442 89 L 450 89 L 450 97 L 442 97 Z" opacity="1" class="highcharts-point highcharts-color-2" tabindex="-1" style="outline: currentcolor none 0px;" role="img" aria-label="7. الثلث-الرابع 2021, 21.3. أنثى."></path><path fill="#90ed7d" d="M 511 93 L 519 93 L 519 101 L 511 101 Z" opacity="1" class="highcharts-point highcharts-color-2" tabindex="-1" style="outline: currentcolor none 0px;" role="img" aria-label="8. الثلث-الأول 2022, 20.9. أنثى."></path></g></g><text x="300" text-anchor="middle" class="highcharts-title" data-z-index="4" style="color:#333333;font-size:18px;align:center;font-size:18px;fill:#333333;" y="24" aria-hidden="true"><tspan>نسبة البطالة</tspan></text><text x="300" text-anchor="middle" class="highcharts-subtitle" data-z-index="4" style="color:#666666;fill:#666666;" y="46" aria-hidden="true"><tspan>المعهد الوطني للإحصاء</tspan></text><text x="10" text-anchor="start" class="highcharts-caption" data-z-index="4" style="color:#666666;fill:#666666;" y="397" aria-hidden="true"></text><g class="highcharts-legend" data-z-index="7" transform="translate(199,359)" aria-hidden="true"><rect fill="none" class="highcharts-legend-box" rx="0" ry="0" x="0" y="0" width="202" height="26" visibility="visible"></rect><g data-z-index="1"><g><g class="highcharts-legend-item highcharts-line-series highcharts-color-0 highcharts-series-0" data-z-index="1" transform="translate(8,3)"><path fill="none" d="M 0 11 L 16 11" class="highcharts-graph" stroke="#7cb5ec" stroke-width="2"></path><path fill="#7cb5ec" d="M 8 15 A 4 4 0 1 1 8.003999999333336 14.999998000000167 Z" class="highcharts-point" opacity="1"></path><text x="21" style="color:#333333;cursor:pointer;font-size:12px;font-weight:bold;fill:#333333;" text-anchor="start" data-z-index="2" y="15"><tspan>حسب الجنس</tspan></text></g><g class="highcharts-legend-item highcharts-line-series highcharts-color-1 highcharts-series-1" data-z-index="1" transform="translate(101.08333206176758,3)"><path fill="none" d="M 0 11 L 16 11" class="highcharts-graph" stroke="#434348" stroke-width="2"></path><path fill="#434348" d="M 8 7 L 12 11 L 8 15 L 4 11 Z" class="highcharts-point" opacity="1"></path><text x="21" y="15" style="color:#333333;cursor:pointer;font-size:12px;font-weight:bold;fill:#333333;" text-anchor="start" data-z-index="2"><tspan>ذكر</tspan></text></g><g class="highcharts-legend-item highcharts-line-series highcharts-color-2 highcharts-series-2" data-z-index="1" transform="translate(156.71666526794434,3)"><path fill="none" d="M 0 11 L 16 11" class="highcharts-graph" stroke="#90ed7d" stroke-width="2"></path><path fill="#90ed7d" d="M 4 7 L 12 7 L 12 15 L 4 15 Z" class="highcharts-point" opacity="1"></path><text x="21" y="15" style="color:#333333;cursor:pointer;font-size:12px;font-weight:bold;fill:#333333;" text-anchor="start" data-z-index="2"><tspan>أنثى</tspan></text></g></g></g></g><g class="highcharts-axis-labels highcharts-xaxis-labels" data-z-index="7" aria-hidden="true"><text x="76.96772486435067" style="color:#666666;cursor:default;font-size:11px;fill:#666666;" text-anchor="end" transform="translate(0,0) rotate(-45 76.96772486435067 292)" y="292" opacity="1"><tspan>الثلث-الثاني 2020</tspan></text><text x="145.71772486435069" style="color:#666666;cursor:default;font-size:11px;fill:#666666;" text-anchor="end" transform="translate(0,0) rotate(-45 145.71772486435069 292)" y="292" opacity="1"><tspan>الثلث-الثالث 2020</tspan></text><text x="214.46772486435069" style="color:#666666;cursor:default;font-size:11px;fill:#666666;" text-anchor="end" transform="translate(0,0) rotate(-45 214.46772486435069 292)" y="292" opacity="1"><tspan>الثلث-الرابع 2020</tspan></text><text x="283.21772486435066" style="color:#666666;cursor:default;font-size:11px;fill:#666666;" text-anchor="end" transform="translate(0,0) rotate(-45 283.21772486435066 292)" y="292" opacity="1"><tspan>الثلث-الأول 2021</tspan></text><text x="351.96772486435066" style="color:#666666;cursor:default;font-size:11px;fill:#666666;" text-anchor="end" transform="translate(0,0) rotate(-45 351.96772486435066 292)" y="292" opacity="1"><tspan>الثلث-الثاني 2021</tspan></text><text x="420.71772486435066" style="color:#666666;cursor:default;font-size:11px;fill:#666666;" text-anchor="end" transform="translate(0,0) rotate(-45 420.71772486435066 292)" y="292" opacity="1"><tspan>الثلث-الثالث 2021</tspan></text><text x="489.46772486435066" style="color:#666666;cursor:default;font-size:11px;fill:#666666;" text-anchor="end" transform="translate(0,0) rotate(-45 489.46772486435066 292)" y="292" opacity="1"><tspan>الثلث-الرابع 2021</tspan></text><text x="558.2177248643507" style="color:#666666;cursor:default;font-size:11px;fill:#666666;" text-anchor="end" transform="translate(0,0) rotate(-45 558.2177248643507 292)" y="292" opacity="1"><tspan>الثلث-الأول 2022</tspan></text></g><g class="highcharts-axis-labels highcharts-yaxis-labels" data-z-index="7" aria-hidden="true"><text x="25" style="color:#666666;cursor:default;font-size:11px;fill:#666666;" text-anchor="end" transform="translate(0,0)" y="173" opacity="1">20</text><text x="25" style="color:#666666;cursor:default;font-size:11px;fill:#666666;" text-anchor="end" transform="translate(0,0)" y="280" opacity="1">10</text><text x="25" style="color:#666666;cursor:default;font-size:11px;fill:#666666;" text-anchor="end" transform="translate(0,0)" y="227" opacity="1">15</text><text x="25" style="color:#666666;cursor:default;font-size:11px;fill:#666666;" text-anchor="end" transform="translate(0,0)" y="120" opacity="1">25</text><text x="25" style="color:#666666;cursor:default;font-size:11px;fill:#666666;" text-anchor="end" transform="translate(0,0)" y="66" opacity="1">30</text></g><text x="590" class="highcharts-credits" text-anchor="end" data-z-index="8" style="cursor:pointer;color:#999999;font-size:9px;fill:#999999;" y="395" aria-label="Chart credits: Highcharts.com" aria-hidden="false">Highcharts.com</text></svg>